#!OML:ASF E:\Steps\Project 1\Capture day 1\Session 2\Subject.ASF
:FULLY-SPECIFIED
:DEGREES
126
root 8.79228 16.3207 30.7666 -150.688 -0.741774 178.875
lowerback -29.3468 -1.47252 -6.30747
upperback -2.42858 -0.681554 -0.50137
thorax 12.7662 -0.997573 2.54354
lowerneck -8.36126 -1.52237 -0.264249
upperneck 0.687317 -2.3168 4.67306
head 1.71282 -1.11141 1.43094
rclavicle 1.09332e-015 2.90226e-014
rhumerus -36.5616 -19.4707 -80.2888
rradius 30.8882
rwrist -0.619496
rhand -6.27541 -48.4471
rfingers 7.12502
rthumb 19.5676 -77.4824
lclavicle 1.09332e-015 2.90226e-014
lhumerus -29.7455 7.69976 80.1949
lradius 21.3197
lwrist -5.6609
lhand -21.1186 -13.7196
lfingers 7.12502
lthumb 5.25986 16.1951
rfemur -24.4924 6.69257 17.2578
rtibia 5.27901
rfoot -18.7487 -8.86308
rtoes -30.8522
lfemur -25.7176 -9.89216 -18.2304
ltibia 7.7234
lfoot -8.75195 2.55276
ltoes -34.6229
127
root 8.79217 16.3193 30.7663 -150.665 -0.752413 178.917
lowerback -29.3592 -1.46073 -6.2453
upperback -2.44304 -0.689752 -0.492643
thorax 12.7564 -0.998735 2.51604
lowerneck -8.28771 -1.54943 -0.2892
upperneck 0.597012 -2.35193 4.7458
head 1.67309 -1.13124 1.45727
rclavicle 6.36111e-015 0
rhumerus -36.6047 -19.4296 -80.2936
rradius 30.9239
rwrist -0.607656
rhand -6.26251 -48.4042
rfingers 7.12502
rthumb 19.58 -77.4382
lclavicle 6.36111e-015 0
lhumerus -29.7918 7.79718 80.1659
lradius 21.3178
lwrist -5.73744
lhand -21.2313 -13.585
lfingers 7.12502
lthumb 5.15098 16.3324
rfemur -24.5263 6.59077 17.3398
rtibia 5.31272
rfoot -18.7812 -8.75338
rtoes -30.7911
lfemur -25.7438 -9.89088 -18.1738
ltibia 7.73029
lfoot -8.75593 2.55433
ltoes -33.8799
128
root 8.79218 16.319 30.7648 -150.686 -0.724025 178.916
lowerback -29.3627 -1.47063 -6.23119
upperback -2.4227 -0.7034 -0.487431
thorax 12.7827 -1.0039 2.50894
lowerneck -8.28485 -1.50984 -0.327387
upperneck 0.641148 -2.2944 4.73954
head 1.68596 -1.10107 1.46446
rclavicle 1.03368e-014 -2.62396e-014
rhumerus -36.5436 -19.403 -80.3152
rradius 30.8892
rwrist -0.544085
rhand -6.24688 -48.3986
rfingers 7.12502
rthumb 19.595 -77.4311
lclavicle 1.03368e-014 -2.62396e-014
lhumerus -29.7853 7.99953 80.1218
lradius 21.2818
lwrist -5.86591
lhand -21.3029 -13.6886
lfingers 7.12502
lthumb 5.08188 16.2304
rfemur -24.4999 6.50283 17.3747
rtibia 5.33123
rfoot -18.8092 -8.71632
rtoes -31.2233
lfemur -25.675 -10.0845 -18.1353
ltibia 7.67182
lfoot -8.78163 2.75087
ltoes -33.9799
129
root 8.79315 16.3211 30.7639 -150.748 -0.717289 178.873
lowerback -29.3022 -1.49819 -6.27349
upperback -2.3931 -0.720839 -0.49082
thorax 12.7909 -1.0116 2.52306
lowerneck -8.29516 -1.46497 -0.359411
upperneck 0.708751 -2.22996 4.71674
head 1.7082 -1.06688 1.46559
rclavicle 3.37934e-015 -1.19271e-014
rhumerus -36.4892 -19.3969 -80.3259
rradius 30.8579
rwrist -0.538812
rhand -6.22017 -48.3187
rfingers 7.12502
rthumb 19.6207 -77.3486
lclavicle 3.37934e-015 -1.19271e-014
lhumerus -29.7605 8.0604 80.1262
lradius 21.2546
lwrist -5.89611
lhand -21.2365 -13.8426
lfingers 7.12502
lthumb 5.14599 16.0749
rfemur -24.4194 6.49283 17.3471
rtibia 5.32573
rfoot -18.8694 -8.76053
rtoes -31.3782
lfemur -25.5863 -10.1596 -18.1767
ltibia 7.63803
lfoot -8.74024 2.80166
ltoes -34.7658
130
root 8.79368 16.3225 30.7645 -150.758 -0.733696 178.844
lowerback -29.2398 -1.49962 -6.30783
upperback -2.40461 -0.714414 -0.506959
thorax 12.7488 -1.00884 2.52793
lowerneck -8.28522 -1.46661 -0.333593
upperneck 0.700781 -2.23618 4.73609
head 1.70394 -1.07017 1.46704
rclavicle 1.45113e-014 -1.59028e-015
rhumerus -36.5334 -19.4638 -80.3186
rradius 30.8938
rwrist -0.548315
rhand -6.19305 -48.2383
rfingers 7.12502
rthumb 19.6468 -77.2655
lclavicle 1.45113e-014 -1.59028e-015
lhumerus -29.7695 7.98531 80.1465
lradius 21.2475
lwrist -5.87453
lhand -21.0613 -14.0731
lfingers 7.12502
lthumb 5.31514 15.8402
rfemur -24.3896 6.63229 17.2687
rtibia 5.27461
rfoot -18.9058 -8.85174
rtoes -30.6446
lfemur -25.5908 -10.2125 -18.1925
ltibia 7.65189
lfoot -8.7364 2.84312
ltoes -34.8445
